<?xml version="1.0" encoding="UTF-8" standalone="no"?>
<svg
   xmlns:dc="http://purl.org/dc/elements/1.1/"
   xmlns:cc="http://creativecommons.org/ns#"
   xmlns:rdf="http://www.w3.org/1999/02/22-rdf-syntax-ns#"
   xmlns:svg="http://www.w3.org/2000/svg"
   xmlns="http://www.w3.org/2000/svg"
   xmlns:sodipodi="http://sodipodi.sourceforge.net/DTD/sodipodi-0.dtd"
   xmlns:inkscape="http://www.inkscape.org/namespaces/inkscape"
   width="74.340706mm"
   height="80.565453mm"
   viewBox="0 0 74.340706 80.565453"
   version="1.1"
   id="svg8"
   inkscape:version="1.0.2 (1.0.2+r75+1)"
   sodipodi:docname="logo.svg">
  <defs
     id="defs2" />
  <sodipodi:namedview
     id="base"
     pagecolor="#ffffff"
     bordercolor="#666666"
     borderopacity="1.0"
     inkscape:pageopacity="0.0"
     inkscape:pageshadow="2"
     inkscape:zoom="1.4"
     inkscape:cx="243.00298"
     inkscape:cy="167.83339"
     inkscape:document-units="mm"
     inkscape:current-layer="layer1"
     inkscape:document-rotation="0"
     showgrid="false"
     fit-margin-top="0"
     fit-margin-left="0"
     fit-margin-right="0"
     fit-margin-bottom="0"
     inkscape:window-width="2488"
     inkscape:window-height="1376"
     inkscape:window-x="72"
     inkscape:window-y="27"
     inkscape:window-maximized="1" />
  <metadata
     id="metadata5">
    <rdf:RDF>
      <cc:Work
         rdf:about="">
        <dc:format>image/svg+xml</dc:format>
        <dc:type
           rdf:resource="http://purl.org/dc/dcmitype/StillImage" />
        <dc:title></dc:title>
      </cc:Work>
    </rdf:RDF>
  </metadata>
  <g
     inkscape:label="Layer 1"
     inkscape:groupmode="layer"
     id="layer1"
     transform="translate(-41.538795,-103.76075)">
    <path
       style="fill:#3a3a3a;fill-opacity:1;stroke-width:0.0754352"
       d="m 81.308742,162.49681 c 0.124462,-0.0145 0.548792,-0.063 0.942937,-0.10769 2.388851,-0.27105 5.296195,-1.29693 7.354935,-2.59526 0.871797,-0.54979 1.878042,-1.3091 2.634863,-1.98828 l 0.598113,-0.53674 0.69424,1.03983 c 0.381836,0.57191 0.791598,1.10365 0.910591,1.18166 0.552272,0.36205 1.424652,0.16862 1.774029,-0.39334 0.165941,-0.26692 0.178671,-0.36998 0.198181,-1.60534 0.0114,-0.72607 -0.006,-3.15925 -0.0377,-5.40707 -0.057,-3.98167 -0.0627,-4.09242 -0.216369,-4.29981 -0.275403,-0.37149 -0.616072,-0.55232 -1.04051,-0.55232 -0.340018,0 -0.906127,0.23411 -4.948711,2.04649 -2.510629,1.12556 -4.67615,2.11341 -4.812282,2.19522 -0.478791,0.28773 -0.698831,1.1251 -0.431492,1.64209 0.231653,0.44796 0.565003,0.61083 1.596192,0.77987 l 0.951898,0.15605 -0.255625,0.2156 c -0.380535,0.32094 -1.391453,0.91766 -2.129721,1.25713 -3.858288,1.77411 -8.494995,1.40128 -12.013947,-0.96602 -1.940012,-1.3051 -3.351636,-2.95074 -4.440411,-5.17652 -0.55087,-1.12614 -0.929549,-1.55931 -1.661887,-1.90101 -0.405695,-0.18929 -0.534717,-0.21113 -1.244681,-0.2107 -0.715565,5.7e-4 -0.834079,0.021 -1.226985,0.21347 -1.020997,0.50002 -1.71499,1.59904 -1.71499,2.71589 0,0.9069 1.141221,3.1957 2.488956,4.99178 0.685007,0.91288 2.047671,2.33384 3.00781,3.13649 3.270241,2.73382 7.567094,4.25331 11.89105,4.20503 0.497875,-0.006 1.007066,-0.022 1.131535,-0.0365 z m 13.925907,-21.5522 c 0.777016,-0.31964 1.227792,-0.75188 1.588912,-1.52358 0.285267,-0.60961 0.348187,-1.26669 0.183817,-1.91986 -0.16384,-0.65108 -1.0424,-2.41756 -1.669473,-3.35673 -1.043036,-1.56217 -2.542362,-3.21895 -3.878048,-4.28531 -2.543093,-2.03032 -5.637235,-3.37515 -8.906435,-3.87109 -1.23061,-0.18669 -3.941621,-0.18947 -5.129599,-0.005 -3.765761,0.58393 -7.048633,2.12109 -9.7615,4.57072 l -0.596123,0.53828 -0.704773,-1.05561 c -0.563103,-0.84341 -0.764886,-1.08627 -1.003871,-1.20819 -0.750961,-0.38311 -1.602229,0.004 -1.818644,0.82807 -0.0676,0.25728 -0.07325,1.5937 -0.0233,5.52026 0.06467,5.08637 0.06875,5.18467 0.223677,5.39362 0.275347,0.37133 0.616123,0.55228 1.040125,0.55228 0.340056,0 0.921642,-0.24161 5.128664,-2.13063 5.32352,-2.39033 5.103739,-2.25964 5.16233,-3.06969 0.03738,-0.51696 -0.08844,-0.80851 -0.476808,-1.10472 -0.214458,-0.16359 -0.446186,-0.23219 -1.203475,-0.35634 -0.515828,-0.0846 -0.921352,-0.18046 -0.901169,-0.21312 0.09525,-0.15414 1.42258,-0.95598 2.17308,-1.31279 1.06253,-0.50514 1.795297,-0.7524 2.943023,-0.99307 1.278314,-0.26805 3.211412,-0.28413 4.517076,-0.0376 1.23923,0.23401 2.192517,0.55258 3.335564,1.11467 2.596937,1.27703 4.517909,3.25181 5.839991,6.00357 0.520053,1.08243 0.899572,1.5051 1.685063,1.87671 0.414574,0.19612 0.552525,0.22265 1.15,0.22113 0.533661,-0.001 0.769413,-0.039 1.101923,-0.17574 z"
       id="path923"
       inkscape:export-xdpi="88.276054"
       inkscape:export-ydpi="88.276054" />
    <g
       id="g927"
       transform="translate(0,2.6458334)"
       inkscape:export-xdpi="88.276054"
       inkscape:export-ydpi="88.276054">
      <rect
         style="fill:#3b85d9;fill-opacity:1;fill-rule:evenodd;stroke-width:1.3382;stroke-linecap:round;stroke-linejoin:round;paint-order:markers fill stroke"
         id="rect883"
         width="33.218342"
         height="41.176388"
         x="41.538795"
         y="140.50398" />
      <path
         style="fill:#ffffff;fill-opacity:1;stroke-width:0.0438692"
         d="m 64.51818,177.88587 c -0.951127,-0.0909 -1.881307,-0.43023 -2.52933,-0.92279 -0.811224,-0.61659 -1.485203,-1.70041 -2.099679,-3.37646 -0.327768,-0.89403 -0.516941,-1.56278 -1.504569,-5.31888 -0.50867,-1.93454 -0.930597,-3.52253 -0.937617,-3.52886 -0.007,-0.006 -1.633181,2.93115 -3.61369,6.52773 l -3.600926,6.53925 h -2.368026 -2.368026 l 0.31817,-0.57291 c 0.174992,-0.3151 2.523828,-4.52507 5.219634,-9.35551 2.695805,-4.83043 4.901464,-8.81536 4.901464,-8.8554 0,-0.0942 -1.408101,-5.44489 -1.712538,-6.50757 -0.600072,-2.09464 -1.242078,-3.41662 -1.921083,-3.95578 -0.286219,-0.22728 -0.880913,-0.48867 -1.285477,-0.56503 -0.478368,-0.0903 -1.314176,-0.0809 -1.750115,0.0197 -1.360408,0.31387 -2.308354,1.40088 -2.818974,3.23251 -0.06355,0.22795 -0.140165,0.55039 -0.170261,0.71654 l -0.05472,0.30207 H 45.71384 45.205264 l 0.02977,-0.69791 c 0.113804,-2.66815 0.91074,-4.87374 2.180188,-6.03385 0.87055,-0.79558 1.891242,-1.13707 3.254855,-1.08898 0.732153,0.0258 1.181432,0.1193 1.729583,0.35985 1.139373,0.50001 1.8877,1.53068 2.686051,3.69947 0.393564,1.06916 0.609345,1.812 1.498069,5.15725 0.413995,1.55831 0.764877,2.84577 0.779736,2.86103 0.01486,0.0152 1.513141,-2.62359 3.329513,-5.86407 l 3.302493,-5.8918 2.367952,-4.7e-4 2.367949,-4.7e-4 -0.122645,0.21874 c -0.06745,0.12031 -2.283902,4.05309 -4.925439,8.7395 l -4.802794,8.52074 0.796081,3.04163 c 1.278604,4.88523 1.454315,5.47511 1.935225,6.49666 0.420681,0.89361 0.82694,1.40592 1.394823,1.75891 0.552126,0.3432 0.99621,0.51402 1.681679,0.64687 0.364307,0.0706 1.484307,0.0682 1.893738,-0.004 1.527259,-0.26952 2.495054,-1.09236 2.949825,-2.50802 0.108238,-0.33694 0.245353,-1.04012 0.271125,-1.39042 l 0.01225,-0.16667 0.496529,-0.0118 0.496528,-0.0118 v 0.28703 c 0,0.15786 -0.02147,0.5288 -0.04772,0.82431 -0.212741,2.39522 -0.953408,4.2019 -2.215815,5.40496 -1.048903,0.9996 -2.406926,1.42953 -4.026636,1.27478 z"
         id="path881" />
    </g>
    <g
       id="g907"
       transform="translate(4.3983062,-27.786476)"
       inkscape:export-xdpi="88.276054"
       inkscape:export-ydpi="88.276054">
      <rect
         style="fill:#d93b46;fill-opacity:1;fill-rule:evenodd;stroke-width:1.3382;stroke-linecap:round;stroke-linejoin:round;paint-order:markers fill stroke"
         id="rect883-3"
         width="33.218342"
         height="41.176388"
         x="78.262856"
         y="131.54723" />
      <path
         style="fill:#ffffff;fill-opacity:1;stroke-width:0.0286999"
         d="m 106.69221,169.36536 c -1.41843,-0.25917 -2.91738,-1.42062 -4.26219,-3.30252 -0.65971,-0.92317 -1.31798,-2.11947 -1.86261,-3.38494 -0.43411,-1.00864 -0.743635,-1.95418 -0.991616,-3.02912 -0.506389,-2.19507 -0.647445,-4.30784 -0.436524,-6.53835 0.122831,-1.29895 0.37904,-2.78523 0.602158,-3.49314 0.134367,-0.42631 0.190414,-0.72199 0.19337,-1.02012 0.0029,-0.31003 -0.04122,-0.45443 -0.158526,-0.51643 -0.07085,-0.0374 -0.04701,-0.0438 -1.104382,0.29713 -2.843227,0.9169 -4.788592,1.37925 -6.714685,1.59587 -1.490374,0.16763 -3.386823,0.14686 -4.556389,-0.0499 -1.131841,-0.1904 -1.820247,-0.5472 -2.022874,-1.04846 -0.05765,-0.14261 -0.06109,-0.17964 -0.04496,-0.47914 0.0231,-0.42782 0.03528,-0.48573 0.105824,-0.50138 0.03183,-0.007 1.26865,-0.0159 2.748552,-0.0197 2.621914,-0.007 3.796336,-0.032 4.502623,-0.0971 1.293894,-0.11939 2.245395,-0.37048 3.938961,-1.03945 1.108503,-0.43787 1.119211,-0.4422 1.176989,-0.4756 0.02934,-0.0169 0.107246,-0.0505 0.173194,-0.0745 0.06593,-0.024 0.263793,-0.10827 0.439657,-0.18725 1.326032,-0.59546 3.211998,-1.33765 4.156708,-1.6358 1.60374,-0.50613 2.44809,-0.51348 2.7435,-0.0238 0.0741,0.12289 0.0807,0.15403 0.0775,0.37096 -0.004,0.26162 -0.0469,0.43557 -0.18896,0.76233 -0.14526,0.33402 -0.41892,0.77095 -0.67765,1.08194 -0.0948,0.11391 -0.33168,0.46132 -0.46442,0.68104 -0.19161,0.31715 -0.26066,0.43873 -0.43544,0.76671 -0.69033,1.29536 -1.1093,2.32796 -1.26867,3.12684 -0.1209,0.60594 -0.18664,2.16176 -0.1594,3.77184 0.0345,2.03845 0.11335,2.50773 0.73751,4.3896 0.46556,1.40366 0.89685,2.19193 1.33506,2.44009 0.13963,0.0791 0.17367,0.0858 0.37424,0.0735 0.40096,-0.0244 0.67678,-0.22912 1.37013,-1.01686 0.6641,-0.75452 0.96941,-0.98988 1.31335,-1.01243 0.13954,-0.009 0.19947,0.002 0.28154,0.0508 0.49128,0.29404 0.77003,1.35085 1.06155,4.02448 0.28521,2.61572 0.26986,3.49519 -0.0763,4.37045 -0.10107,0.25557 -0.36269,0.67587 -0.50603,0.81295 -0.13778,0.13176 -0.37181,0.25998 -0.56151,0.30763 -0.14659,0.0368 -0.68104,0.0507 -0.83933,0.0218 z m -14.988134,-0.44144 c -0.280587,-0.0805 -1.239072,-0.6134 -1.583488,-0.88041 -0.91489,-0.70926 -1.313542,-1.59445 -1.18744,-2.63667 0.09028,-0.74606 0.322143,-1.77723 0.731788,-3.25446 0.471875,-1.70164 0.673533,-2.52434 0.73305,-2.99059 0.02222,-0.17416 0.04041,-0.3237 0.04041,-0.33232 0,-0.009 -0.73442,-0.0163 -1.632047,-0.0171 -1.948293,-0.002 -3.858162,-0.0436 -4.190015,-0.0918 -0.503983,-0.0733 -0.775432,-0.20515 -1.115895,-0.54217 -0.327181,-0.32387 -0.400346,-0.58272 -0.256899,-0.90892 0.08532,-0.19402 0.303155,-0.44518 0.466712,-0.53808 0.388443,-0.22066 1.093175,-0.27518 4.849628,-0.37516 1.02202,-0.0272 2.39235,-0.0755 2.397572,-0.0844 0.0029,-0.004 0.122325,-0.55075 0.26597,-1.21383 0.301681,-1.39256 0.488399,-2.08494 0.693299,-2.57075 0.166711,-0.3953 0.372154,-0.68044 0.577039,-0.80088 0.242941,-0.14283 0.660309,-0.15796 0.870959,-0.0316 0.117822,0.0707 0.256759,0.2754 0.311457,0.4589 0.07048,0.2365 0.08298,0.84484 0.02765,1.349 -0.02413,0.22016 -0.09779,0.67613 -0.163645,1.01326 -0.184621,0.94512 -0.276246,1.49485 -0.276833,1.66093 l -5.06e-4,0.15149 0.246477,-0.0197 c 0.135556,-0.0109 0.417918,-0.0539 0.62746,-0.0957 0.801959,-0.15997 1.297663,-0.17649 1.525966,-0.0509 0.386198,0.21253 0.943625,1.08984 1.11825,1.75999 0.04452,0.17078 0.05567,0.27301 0.04488,0.41071 -0.02413,0.30868 -0.116796,0.40523 -0.439928,0.4584 -0.201768,0.0332 -1.751532,0.0665 -2.993443,0.0642 l -0.789573,-0.002 -0.254757,1.19786 c -0.262098,1.23241 -0.29904,1.4285 -0.388729,2.06343 -0.156912,1.11091 -0.144936,2.0826 0.03623,2.9367 0.06395,0.30152 0.150664,0.61071 0.346015,1.23378 0.130598,0.4165 0.242751,0.87402 0.296165,1.20817 0.06007,0.37604 0.04452,0.81612 -0.0352,0.99377 -0.151324,0.33729 -0.583969,0.56665 -0.898624,0.47639 z m -10.698202,-1.76536 c -0.297639,-0.042 -0.545818,-0.17508 -0.766112,-0.41066 -0.15824,-0.16922 -0.177,-0.21631 -0.12905,-0.32388 0.08832,-0.19813 0.401028,-0.45765 0.877179,-0.72796 0.354911,-0.20148 0.872323,-0.48331 0.8873,-0.48331 0.0407,0 1.098983,-0.54423 1.368914,-0.70397 0.937297,-0.55468 1.775575,-1.38249 2.744488,-2.71023 1.285878,-1.76206 1.695421,-2.181 2.132107,-2.181 0.158805,0 0.309697,0.0649 0.505847,0.21772 0.401482,0.31272 0.586162,0.74164 0.586162,1.36135 0,0.43783 -0.087,0.804 -0.318886,1.34217 -0.355116,0.82417 -0.803992,1.42133 -1.701816,2.26403 -0.421388,0.39552 -1.445732,1.03781 -2.215943,1.38946 -1.112632,0.50799 -2.359456,0.88046 -3.232227,0.9656 -0.376539,0.0368 -0.48215,0.0368 -0.737963,6.9e-4 z m 15.001462,-1.85112 c -0.525876,-0.1289 -0.870894,-0.36859 -1.381439,-0.95973 -0.26713,-0.30929 -0.408752,-0.51016 -0.570747,-0.80951 -0.404563,-0.74759 -0.842452,-2.02998 -0.851561,-2.49385 -0.0037,-0.1699 0.01592,-0.22121 0.08299,-0.22121 0.08198,0 0.588912,0.31606 0.948825,0.59157 0.454025,0.34755 1.095242,0.7739 1.859417,1.23634 0.970527,0.58731 1.376528,0.88975 1.715898,1.27818 0.295754,0.33852 0.365223,0.55293 0.2586,0.79818 -0.08122,0.18681 -0.29219,0.39246 -0.355814,0.34684 -0.01335,-0.01 -0.03469,0.004 -0.04738,0.0307 -0.03102,0.0642 -0.354192,0.19206 -0.582341,0.23032 -0.291611,0.0489 -0.819041,0.0352 -1.076424,-0.0278 z m -8.147392,-10.42298 c -0.07722,-0.0149 -0.179135,-0.046 -0.226491,-0.069 -0.41599,-0.20224 -0.738865,-1.12398 -0.705532,-2.01418 0.02266,-0.60479 0.173451,-0.87857 0.498975,-0.90589 0.08717,-0.008 0.18798,-0.005 0.224027,0.006 0.10454,0.0305 0.224386,0.16676 0.283909,0.32294 0.03029,0.0794 0.08737,0.18416 0.126887,0.23275 0.167489,0.206 0.675903,0.54765 1.044411,0.70186 0.12369,0.0517 0.23794,0.0739 0.399686,0.0776 0.340236,0.008 0.338974,0.008 0.411794,0.0919 0.09101,0.10559 0.09173,0.30867 0.0022,0.53252 -0.104298,0.25991 -0.441988,0.63891 -0.507848,0.56998 -0.01152,-0.0121 -0.01335,-0.007 -0.0037,0.0126 0.02244,0.0456 -0.372623,0.27311 -0.581322,0.33472 -0.434281,0.12822 -0.701432,0.15764 -0.966406,0.10644 z m 7.264375,-0.89032 c -0.05735,-0.0539 -0.06278,-0.0819 -0.06109,-0.31685 0.0015,-0.20424 0.01922,-0.31671 0.08556,-0.54183 0.157448,-0.53432 0.471354,-1.18501 0.797765,-1.65371 0.383763,-0.55103 0.932324,-0.89196 1.431936,-0.88995 0.256385,8.5e-4 0.402605,0.0449 0.565708,0.16978 0.413056,0.31621 0.402275,0.99393 -0.02758,1.73059 -0.417215,0.71506 -1.294577,1.29713 -2.258804,1.49855 -0.371435,0.0776 -0.454068,0.0781 -0.533555,0.003 z M 84.84284,146.69082 c -0.213224,-0.0699 -0.325069,-0.30834 -0.268347,-0.57217 0.07968,-0.37059 0.395843,-0.79381 1.146802,-1.53512 1.663892,-1.64251 2.26825,-2.46075 2.878724,-3.89753 0.291772,-0.68669 0.47745,-1.25151 0.549896,-1.67277 0.06982,-0.40589 0.06205,-0.9987 -0.01753,-1.34369 -0.05992,-0.25961 -0.215512,-0.75009 -0.32366,-1.02012 -0.101776,-0.25409 -0.210401,-0.69263 -0.226602,-0.9148 -0.0366,-0.50179 0.151691,-0.7935 0.790439,-1.22466 0.566404,-0.38232 0.903823,-0.52193 1.312479,-0.54308 0.515601,-0.0266 0.877083,0.1181 1.177179,0.47143 0.338373,0.3984 0.46006,0.80474 0.495535,1.65468 0.06102,1.46161 -0.104107,2.53043 -0.550584,3.56403 -0.584248,1.35252 -1.917424,3.25155 -3.420494,4.87226 -0.577618,0.62282 -1.135184,1.13689 -1.62538,1.49855 -0.664446,0.49023 -1.531401,0.78983 -1.91848,0.66299 z m 6.394935,-0.67344 c -0.335006,-0.0306 -0.471112,-0.0781 -0.577933,-0.20202 -0.16845,-0.19543 -0.108618,-0.42432 0.177734,-0.67995 0.406932,-0.36327 1.216498,-0.75873 3.051435,-1.49059 0.78166,-0.31175 1.382371,-0.57057 1.705313,-0.73475 0.175864,-0.0894 0.571553,-0.2914 0.879306,-0.44888 1.207029,-0.61766 1.882697,-0.88801 2.358789,-0.94381 0.44988,-0.0528 0.917545,0.21047 1.055727,0.59414 0.108977,0.30258 0.06557,0.72908 -0.117228,1.15261 -0.133517,0.30932 -0.467328,0.70139 -0.772602,0.90745 -1.350022,0.91127 -5.966315,2.00923 -7.760541,1.8458 z m 1.633279,-4.36163 c -0.1611,-0.0369 -0.220572,-0.0823 -0.263286,-0.2009 -0.05449,-0.15131 -0.04686,-0.22622 0.041,-0.40395 0.268706,-0.54352 1.45066,-1.30959 3.824886,-2.47904 2.420732,-1.19236 3.251274,-1.47973 4.030716,-1.39464 0.69626,0.076 1.60188,0.5579 1.85308,0.98607 0.097,0.1654 0.0276,0.47049 -0.15891,0.69801 -0.38714,0.47231 -1.51754,1.02137 -2.927101,1.42177 -3.74818,1.06468 -5.812453,1.50741 -6.400361,1.37268 z"
         id="path861"
         sodipodi:nodetypes="ssssssssssssssssssssssssssssssssssssssssssssssssssssssssssssccssssssscsssssssscsssssssssssssccsssssssssssssssssssssssssssssssssssssssssssssssssssssssssssssssssssssssss" />
    </g>
  </g>
</svg>
