<?xml version="1.0" encoding="UTF-8" standalone="no"?>
<svg
   xmlns:dc="http://purl.org/dc/elements/1.1/"
   xmlns:cc="http://creativecommons.org/ns#"
   xmlns:rdf="http://www.w3.org/1999/02/22-rdf-syntax-ns#"
   xmlns:svg="http://www.w3.org/2000/svg"
   xmlns="http://www.w3.org/2000/svg"
   xmlns:sodipodi="http://sodipodi.sourceforge.net/DTD/sodipodi-0.dtd"
   xmlns:inkscape="http://www.inkscape.org/namespaces/inkscape"
   width="26.943119mm"
   height="29.199141mm"
   viewBox="0 0 26.943119 29.199141"
   version="1.1"
   id="svg8"
   inkscape:version="1.0.2 (1.0.2+r75+1)"
   sodipodi:docname="logo.svg">
  <defs
     id="defs2" />
  <sodipodi:namedview
     id="base"
     pagecolor="#ffffff"
     bordercolor="#666666"
     borderopacity="1.0"
     inkscape:pageopacity="0.0"
     inkscape:pageshadow="2"
     inkscape:zoom="1.4"
     inkscape:cx="243.00298"
     inkscape:cy="-26.307017"
     inkscape:document-units="mm"
     inkscape:current-layer="layer1"
     inkscape:document-rotation="0"
     showgrid="false"
     fit-margin-top="0"
     fit-margin-left="0"
     fit-margin-right="0"
     fit-margin-bottom="0"
     inkscape:window-width="2488"
     inkscape:window-height="1376"
     inkscape:window-x="72"
     inkscape:window-y="27"
     inkscape:window-maximized="1" />
  <metadata
     id="metadata5">
    <rdf:RDF>
      <cc:Work
         rdf:about="">
        <dc:format>image/svg+xml</dc:format>
        <dc:type
           rdf:resource="http://purl.org/dc/dcmitype/StillImage" />
        <dc:title></dc:title>
      </cc:Work>
    </rdf:RDF>
  </metadata>
  <g
     inkscape:label="Layer 1"
     inkscape:groupmode="layer"
     id="layer1"
     transform="translate(-41.538796,-155.12706)">
    <path
       style="fill:#3a3a3a;fill-opacity:1;stroke-width:0.0273398"
       d="m 55.952519,176.41463 c 0.04511,-0.005 0.198897,-0.0228 0.341746,-0.039 0.865785,-0.0982 1.919487,-0.47004 2.665631,-0.94059 0.315963,-0.19926 0.680654,-0.47446 0.954947,-0.72061 l 0.216772,-0.19453 0.251612,0.37686 c 0.138388,0.20728 0.286897,0.4 0.330023,0.42827 0.200159,0.13122 0.516333,0.0611 0.642957,-0.14256 0.06014,-0.0967 0.06476,-0.13409 0.07183,-0.58182 0.0041,-0.26314 -0.0022,-1.145 -0.01366,-1.95967 -0.02066,-1.44306 -0.02272,-1.4832 -0.07842,-1.55837 -0.09981,-0.13464 -0.223282,-0.20017 -0.37711,-0.20017 -0.123232,0 -0.328405,0.0848 -1.793549,0.7417 -0.909921,0.40793 -1.694765,0.76596 -1.744103,0.79561 -0.173527,0.10428 -0.253276,0.40777 -0.156385,0.59514 0.08396,0.16235 0.204773,0.22138 0.578504,0.28264 l 0.344994,0.0566 -0.09264,0.0781 c -0.137917,0.11632 -0.504301,0.33259 -0.77187,0.45562 -1.39835,0.64298 -3.07882,0.50786 -4.354185,-0.35011 -0.703114,-0.47301 -1.214725,-1.06943 -1.609327,-1.87612 -0.19965,-0.40814 -0.336894,-0.56513 -0.602314,-0.68898 -0.147035,-0.0686 -0.193796,-0.0765 -0.451106,-0.0764 -0.259341,2.1e-4 -0.302293,0.008 -0.444693,0.0774 -0.370038,0.18122 -0.62156,0.57953 -0.62156,0.98431 0,0.32869 0.41361,1.15821 0.902066,1.80916 0.248266,0.33085 0.742132,0.84585 1.090113,1.13675 1.185226,0.99081 2.742523,1.54152 4.309644,1.52402 0.180444,-0.002 0.364989,-0.008 0.410099,-0.0132 z m 5.047132,-7.81111 c 0.281612,-0.11585 0.444985,-0.2725 0.575865,-0.55219 0.103389,-0.22094 0.126193,-0.45908 0.06662,-0.69581 -0.05938,-0.23597 -0.377794,-0.87619 -0.605063,-1.21657 -0.378025,-0.56617 -0.921422,-1.16663 -1.405511,-1.55311 -0.921687,-0.73585 -2.043089,-1.22325 -3.227937,-1.40299 -0.446007,-0.0677 -1.428552,-0.0687 -1.859108,-0.002 -1.364815,0.21163 -2.554619,0.76874 -3.537836,1.65655 l -0.216052,0.19509 -0.255429,-0.38258 c -0.204084,-0.30568 -0.277215,-0.3937 -0.36383,-0.43789 -0.272169,-0.13885 -0.580692,0.001 -0.659127,0.30012 -0.0245,0.0933 -0.02655,0.5776 -0.0084,2.00069 0.02344,1.84344 0.02492,1.87907 0.08107,1.9548 0.09979,0.13458 0.2233,0.20016 0.37697,0.20016 0.123246,0 0.334029,-0.0876 1.858769,-0.7722 1.92939,-0.86632 1.849736,-0.81895 1.870971,-1.11254 0.01355,-0.18736 -0.03205,-0.29302 -0.172809,-0.40038 -0.07773,-0.0593 -0.16171,-0.0841 -0.436172,-0.12915 -0.18695,-0.0307 -0.333923,-0.0654 -0.326609,-0.0772 0.03452,-0.0559 0.515583,-0.34647 0.787584,-0.47579 0.385091,-0.18307 0.650665,-0.27269 1.066633,-0.35991 0.463296,-0.0971 1.163904,-0.10298 1.637113,-0.0136 0.449131,0.0848 0.794628,0.20027 1.2089,0.40399 0.941201,0.46283 1.637414,1.17854 2.116573,2.17586 0.188482,0.3923 0.32603,0.54548 0.610713,0.68017 0.150254,0.0711 0.200251,0.0807 0.416792,0.0801 0.193414,-3.6e-4 0.278857,-0.0141 0.399367,-0.0637 z"
       id="path923"
       inkscape:export-xdpi="88.276054"
       inkscape:export-ydpi="88.276054" />
    <g
       id="g927"
       transform="matrix(0.36242752,0,0,0.36242752,26.483993,118.48024)"
       inkscape:export-xdpi="88.276054"
       inkscape:export-ydpi="88.276054">
      <rect
         style="fill:#3b85d9;fill-opacity:1;fill-rule:evenodd;stroke-width:1.3382;stroke-linecap:round;stroke-linejoin:round;paint-order:markers fill stroke"
         id="rect883"
         width="33.218342"
         height="41.176388"
         x="41.538795"
         y="140.50398" />
      <path
         style="fill:#ffffff;fill-opacity:1;stroke-width:0.0438692"
         d="m 64.51818,177.88587 c -0.951127,-0.0909 -1.881307,-0.43023 -2.52933,-0.92279 -0.811224,-0.61659 -1.485203,-1.70041 -2.099679,-3.37646 -0.327768,-0.89403 -0.516941,-1.56278 -1.504569,-5.31888 -0.50867,-1.93454 -0.930597,-3.52253 -0.937617,-3.52886 -0.007,-0.006 -1.633181,2.93115 -3.61369,6.52773 l -3.600926,6.53925 h -2.368026 -2.368026 l 0.31817,-0.57291 c 0.174992,-0.3151 2.523828,-4.52507 5.219634,-9.35551 2.695805,-4.83043 4.901464,-8.81536 4.901464,-8.8554 0,-0.0942 -1.408101,-5.44489 -1.712538,-6.50757 -0.600072,-2.09464 -1.242078,-3.41662 -1.921083,-3.95578 -0.286219,-0.22728 -0.880913,-0.48867 -1.285477,-0.56503 -0.478368,-0.0903 -1.314176,-0.0809 -1.750115,0.0197 -1.360408,0.31387 -2.308354,1.40088 -2.818974,3.23251 -0.06355,0.22795 -0.140165,0.55039 -0.170261,0.71654 l -0.05472,0.30207 H 45.71384 45.205264 l 0.02977,-0.69791 c 0.113804,-2.66815 0.91074,-4.87374 2.180188,-6.03385 0.87055,-0.79558 1.891242,-1.13707 3.254855,-1.08898 0.732153,0.0258 1.181432,0.1193 1.729583,0.35985 1.139373,0.50001 1.8877,1.53068 2.686051,3.69947 0.393564,1.06916 0.609345,1.812 1.498069,5.15725 0.413995,1.55831 0.764877,2.84577 0.779736,2.86103 0.01486,0.0152 1.513141,-2.62359 3.329513,-5.86407 l 3.302493,-5.8918 2.367952,-4.7e-4 2.367949,-4.7e-4 -0.122645,0.21874 c -0.06745,0.12031 -2.283902,4.05309 -4.925439,8.7395 l -4.802794,8.52074 0.796081,3.04163 c 1.278604,4.88523 1.454315,5.47511 1.935225,6.49666 0.420681,0.89361 0.82694,1.40592 1.394823,1.75891 0.552126,0.3432 0.99621,0.51402 1.681679,0.64687 0.364307,0.0706 1.484307,0.0682 1.893738,-0.004 1.527259,-0.26952 2.495054,-1.09236 2.949825,-2.50802 0.108238,-0.33694 0.245353,-1.04012 0.271125,-1.39042 l 0.01225,-0.16667 0.496529,-0.0118 0.496528,-0.0118 v 0.28703 c 0,0.15786 -0.02147,0.5288 -0.04772,0.82431 -0.212741,2.39522 -0.953408,4.2019 -2.215815,5.40496 -1.048903,0.9996 -2.406926,1.42953 -4.026636,1.27478 z"
         id="path881" />
    </g>
    <g
       id="g907"
       transform="matrix(0.36242752,0,0,0.36242752,28.07806,107.45073)"
       inkscape:export-xdpi="88.276054"
       inkscape:export-ydpi="88.276054">
      <rect
         style="fill:#d93b46;fill-opacity:1;fill-rule:evenodd;stroke-width:1.3382;stroke-linecap:round;stroke-linejoin:round;paint-order:markers fill stroke"
         id="rect883-3"
         width="33.218342"
         height="41.176388"
         x="78.262856"
         y="131.54723" />
      <path
         style="fill:#ffffff;fill-opacity:1;stroke-width:0.0286999"
         d="m 106.69221,169.36536 c -1.41843,-0.25917 -2.91738,-1.42062 -4.26219,-3.30252 -0.65971,-0.92317 -1.31798,-2.11947 -1.86261,-3.38494 -0.43411,-1.00864 -0.743635,-1.95418 -0.991616,-3.02912 -0.506389,-2.19507 -0.647445,-4.30784 -0.436524,-6.53835 0.122831,-1.29895 0.37904,-2.78523 0.602158,-3.49314 0.134367,-0.42631 0.190414,-0.72199 0.19337,-1.02012 0.0029,-0.31003 -0.04122,-0.45443 -0.158526,-0.51643 -0.07085,-0.0374 -0.04701,-0.0438 -1.104382,0.29713 -2.843227,0.9169 -4.788592,1.37925 -6.714685,1.59587 -1.490374,0.16763 -3.386823,0.14686 -4.556389,-0.0499 -1.131841,-0.1904 -1.820247,-0.5472 -2.022874,-1.04846 -0.05765,-0.14261 -0.06109,-0.17964 -0.04496,-0.47914 0.0231,-0.42782 0.03528,-0.48573 0.105824,-0.50138 0.03183,-0.007 1.26865,-0.0159 2.748552,-0.0197 2.621914,-0.007 3.796336,-0.032 4.502623,-0.0971 1.293894,-0.11939 2.245395,-0.37048 3.938961,-1.03945 1.108503,-0.43787 1.119211,-0.4422 1.176989,-0.4756 0.02934,-0.0169 0.107246,-0.0505 0.173194,-0.0745 0.06593,-0.024 0.263793,-0.10827 0.439657,-0.18725 1.326032,-0.59546 3.211998,-1.33765 4.156708,-1.6358 1.60374,-0.50613 2.44809,-0.51348 2.7435,-0.0238 0.0741,0.12289 0.0807,0.15403 0.0775,0.37096 -0.004,0.26162 -0.0469,0.43557 -0.18896,0.76233 -0.14526,0.33402 -0.41892,0.77095 -0.67765,1.08194 -0.0948,0.11391 -0.33168,0.46132 -0.46442,0.68104 -0.19161,0.31715 -0.26066,0.43873 -0.43544,0.76671 -0.69033,1.29536 -1.1093,2.32796 -1.26867,3.12684 -0.1209,0.60594 -0.18664,2.16176 -0.1594,3.77184 0.0345,2.03845 0.11335,2.50773 0.73751,4.3896 0.46556,1.40366 0.89685,2.19193 1.33506,2.44009 0.13963,0.0791 0.17367,0.0858 0.37424,0.0735 0.40096,-0.0244 0.67678,-0.22912 1.37013,-1.01686 0.6641,-0.75452 0.96941,-0.98988 1.31335,-1.01243 0.13954,-0.009 0.19947,0.002 0.28154,0.0508 0.49128,0.29404 0.77003,1.35085 1.06155,4.02448 0.28521,2.61572 0.26986,3.49519 -0.0763,4.37045 -0.10107,0.25557 -0.36269,0.67587 -0.50603,0.81295 -0.13778,0.13176 -0.37181,0.25998 -0.56151,0.30763 -0.14659,0.0368 -0.68104,0.0507 -0.83933,0.0218 z m -14.988134,-0.44144 c -0.280587,-0.0805 -1.239072,-0.6134 -1.583488,-0.88041 -0.91489,-0.70926 -1.313542,-1.59445 -1.18744,-2.63667 0.09028,-0.74606 0.322143,-1.77723 0.731788,-3.25446 0.471875,-1.70164 0.673533,-2.52434 0.73305,-2.99059 0.02222,-0.17416 0.04041,-0.3237 0.04041,-0.33232 0,-0.009 -0.73442,-0.0163 -1.632047,-0.0171 -1.948293,-0.002 -3.858162,-0.0436 -4.190015,-0.0918 -0.503983,-0.0733 -0.775432,-0.20515 -1.115895,-0.54217 -0.327181,-0.32387 -0.400346,-0.58272 -0.256899,-0.90892 0.08532,-0.19402 0.303155,-0.44518 0.466712,-0.53808 0.388443,-0.22066 1.093175,-0.27518 4.849628,-0.37516 1.02202,-0.0272 2.39235,-0.0755 2.397572,-0.0844 0.0029,-0.004 0.122325,-0.55075 0.26597,-1.21383 0.301681,-1.39256 0.488399,-2.08494 0.693299,-2.57075 0.166711,-0.3953 0.372154,-0.68044 0.577039,-0.80088 0.242941,-0.14283 0.660309,-0.15796 0.870959,-0.0316 0.117822,0.0707 0.256759,0.2754 0.311457,0.4589 0.07048,0.2365 0.08298,0.84484 0.02765,1.349 -0.02413,0.22016 -0.09779,0.67613 -0.163645,1.01326 -0.184621,0.94512 -0.276246,1.49485 -0.276833,1.66093 l -5.06e-4,0.15149 0.246477,-0.0197 c 0.135556,-0.0109 0.417918,-0.0539 0.62746,-0.0957 0.801959,-0.15997 1.297663,-0.17649 1.525966,-0.0509 0.386198,0.21253 0.943625,1.08984 1.11825,1.75999 0.04452,0.17078 0.05567,0.27301 0.04488,0.41071 -0.02413,0.30868 -0.116796,0.40523 -0.439928,0.4584 -0.201768,0.0332 -1.751532,0.0665 -2.993443,0.0642 l -0.789573,-0.002 -0.254757,1.19786 c -0.262098,1.23241 -0.29904,1.4285 -0.388729,2.06343 -0.156912,1.11091 -0.144936,2.0826 0.03623,2.9367 0.06395,0.30152 0.150664,0.61071 0.346015,1.23378 0.130598,0.4165 0.242751,0.87402 0.296165,1.20817 0.06007,0.37604 0.04452,0.81612 -0.0352,0.99377 -0.151324,0.33729 -0.583969,0.56665 -0.898624,0.47639 z m -10.698202,-1.76536 c -0.297639,-0.042 -0.545818,-0.17508 -0.766112,-0.41066 -0.15824,-0.16922 -0.177,-0.21631 -0.12905,-0.32388 0.08832,-0.19813 0.401028,-0.45765 0.877179,-0.72796 0.354911,-0.20148 0.872323,-0.48331 0.8873,-0.48331 0.0407,0 1.098983,-0.54423 1.368914,-0.70397 0.937297,-0.55468 1.775575,-1.38249 2.744488,-2.71023 1.285878,-1.76206 1.695421,-2.181 2.132107,-2.181 0.158805,0 0.309697,0.0649 0.505847,0.21772 0.401482,0.31272 0.586162,0.74164 0.586162,1.36135 0,0.43783 -0.087,0.804 -0.318886,1.34217 -0.355116,0.82417 -0.803992,1.42133 -1.701816,2.26403 -0.421388,0.39552 -1.445732,1.03781 -2.215943,1.38946 -1.112632,0.50799 -2.359456,0.88046 -3.232227,0.9656 -0.376539,0.0368 -0.48215,0.0368 -0.737963,6.9e-4 z m 15.001462,-1.85112 c -0.525876,-0.1289 -0.870894,-0.36859 -1.381439,-0.95973 -0.26713,-0.30929 -0.408752,-0.51016 -0.570747,-0.80951 -0.404563,-0.74759 -0.842452,-2.02998 -0.851561,-2.49385 -0.0037,-0.1699 0.01592,-0.22121 0.08299,-0.22121 0.08198,0 0.588912,0.31606 0.948825,0.59157 0.454025,0.34755 1.095242,0.7739 1.859417,1.23634 0.970527,0.58731 1.376528,0.88975 1.715898,1.27818 0.295754,0.33852 0.365223,0.55293 0.2586,0.79818 -0.08122,0.18681 -0.29219,0.39246 -0.355814,0.34684 -0.01335,-0.01 -0.03469,0.004 -0.04738,0.0307 -0.03102,0.0642 -0.354192,0.19206 -0.582341,0.23032 -0.291611,0.0489 -0.819041,0.0352 -1.076424,-0.0278 z m -8.147392,-10.42298 c -0.07722,-0.0149 -0.179135,-0.046 -0.226491,-0.069 -0.41599,-0.20224 -0.738865,-1.12398 -0.705532,-2.01418 0.02266,-0.60479 0.173451,-0.87857 0.498975,-0.90589 0.08717,-0.008 0.18798,-0.005 0.224027,0.006 0.10454,0.0305 0.224386,0.16676 0.283909,0.32294 0.03029,0.0794 0.08737,0.18416 0.126887,0.23275 0.167489,0.206 0.675903,0.54765 1.044411,0.70186 0.12369,0.0517 0.23794,0.0739 0.399686,0.0776 0.340236,0.008 0.338974,0.008 0.411794,0.0919 0.09101,0.10559 0.09173,0.30867 0.0022,0.53252 -0.104298,0.25991 -0.441988,0.63891 -0.507848,0.56998 -0.01152,-0.0121 -0.01335,-0.007 -0.0037,0.0126 0.02244,0.0456 -0.372623,0.27311 -0.581322,0.33472 -0.434281,0.12822 -0.701432,0.15764 -0.966406,0.10644 z m 7.264375,-0.89032 c -0.05735,-0.0539 -0.06278,-0.0819 -0.06109,-0.31685 0.0015,-0.20424 0.01922,-0.31671 0.08556,-0.54183 0.157448,-0.53432 0.471354,-1.18501 0.797765,-1.65371 0.383763,-0.55103 0.932324,-0.89196 1.431936,-0.88995 0.256385,8.5e-4 0.402605,0.0449 0.565708,0.16978 0.413056,0.31621 0.402275,0.99393 -0.02758,1.73059 -0.417215,0.71506 -1.294577,1.29713 -2.258804,1.49855 -0.371435,0.0776 -0.454068,0.0781 -0.533555,0.003 z M 84.84284,146.69082 c -0.213224,-0.0699 -0.325069,-0.30834 -0.268347,-0.57217 0.07968,-0.37059 0.395843,-0.79381 1.146802,-1.53512 1.663892,-1.64251 2.26825,-2.46075 2.878724,-3.89753 0.291772,-0.68669 0.47745,-1.25151 0.549896,-1.67277 0.06982,-0.40589 0.06205,-0.9987 -0.01753,-1.34369 -0.05992,-0.25961 -0.215512,-0.75009 -0.32366,-1.02012 -0.101776,-0.25409 -0.210401,-0.69263 -0.226602,-0.9148 -0.0366,-0.50179 0.151691,-0.7935 0.790439,-1.22466 0.566404,-0.38232 0.903823,-0.52193 1.312479,-0.54308 0.515601,-0.0266 0.877083,0.1181 1.177179,0.47143 0.338373,0.3984 0.46006,0.80474 0.495535,1.65468 0.06102,1.46161 -0.104107,2.53043 -0.550584,3.56403 -0.584248,1.35252 -1.917424,3.25155 -3.420494,4.87226 -0.577618,0.62282 -1.135184,1.13689 -1.62538,1.49855 -0.664446,0.49023 -1.531401,0.78983 -1.91848,0.66299 z m 6.394935,-0.67344 c -0.335006,-0.0306 -0.471112,-0.0781 -0.577933,-0.20202 -0.16845,-0.19543 -0.108618,-0.42432 0.177734,-0.67995 0.406932,-0.36327 1.216498,-0.75873 3.051435,-1.49059 0.78166,-0.31175 1.382371,-0.57057 1.705313,-0.73475 0.175864,-0.0894 0.571553,-0.2914 0.879306,-0.44888 1.207029,-0.61766 1.882697,-0.88801 2.358789,-0.94381 0.44988,-0.0528 0.917545,0.21047 1.055727,0.59414 0.108977,0.30258 0.06557,0.72908 -0.117228,1.15261 -0.133517,0.30932 -0.467328,0.70139 -0.772602,0.90745 -1.350022,0.91127 -5.966315,2.00923 -7.760541,1.8458 z m 1.633279,-4.36163 c -0.1611,-0.0369 -0.220572,-0.0823 -0.263286,-0.2009 -0.05449,-0.15131 -0.04686,-0.22622 0.041,-0.40395 0.268706,-0.54352 1.45066,-1.30959 3.824886,-2.47904 2.420732,-1.19236 3.251274,-1.47973 4.030716,-1.39464 0.69626,0.076 1.60188,0.5579 1.85308,0.98607 0.097,0.1654 0.0276,0.47049 -0.15891,0.69801 -0.38714,0.47231 -1.51754,1.02137 -2.927101,1.42177 -3.74818,1.06468 -5.812453,1.50741 -6.400361,1.37268 z"
         id="path861"
         sodipodi:nodetypes="ssssssssssssssssssssssssssssssssssssssssssssssssssssssssssssccssssssscsssssssscsssssssssssssccsssssssssssssssssssssssssssssssssssssssssssssssssssssssssssssssssssssssss" />
    </g>
  </g>
</svg>
